# xmcd
#
# Track frame offsets:
#	150
#	26961
#	57101
#	82301
#	98733
#	130108
#	174075
#	200025
#	218907
#	243183
#
# Disc length: 3450 seconds
#
# Revision: 1
# Processed by: cddbd v1.5.1PL2 Copyright (c) Steve Scherf et al.
# Submitted via: audiograbber 1.83.01
#
DISCID=880d780a
DTITLE=Sea Level - Live at the Ivanhoe Theater
DYEAR=1977
DGENRE=Southern Rock
TTITLE0=Tidal Wave
TTITLE1=Rain In Spain
TTITLE2=Scarborough Fair
TTITLE3=Hide Away
TTITLE4=Hot 'Lanta
TTITLE5=Patriotic Flag Waver
TTITLE6=Grand Larceny
TTITLE7=Statesboro Blues
TTITLE8=Midnight Pass
TTITLE9=I'm Ready
EXTD=
EXTT0=
EXTT1=
EXTT2=
EXTT3=
EXTT4=
EXTT5=
EXTT6=
EXTT7=
EXTT8=
EXTT9=
PLAYORDER=
